<?xml version="1.0" encoding="UTF-8"?>
<svg width="16px" height="16px" viewBox="0 0 16 16" version="1.1" xmlns="http://www.w3.org/2000/svg" xmlns:xlink="http://www.w3.org/1999/xlink">
    <title>2.7 icon/16px/警告提示</title>
    <g id="2.7-icon/16px/警告提示" stroke="none" stroke-width="1" fill="none" fill-rule="evenodd">
        <path d="M8,1 C11.8659932,1 15,4.13400675 15,8 C15,11.8659932 11.8659932,15 8,15 C4.13400675,15 1,11.8659932 1,8 C1,4.13400675 4.13400675,1 8,1 Z M8.05,11.15 C7.66340068,11.15 7.35,11.4634007 7.35,11.85 C7.35,12.2365993 7.66340068,12.55 8.05,12.55 C8.43659932,12.55 8.75,12.2365993 8.75,11.85 C8.75,11.4634007 8.43659932,11.15 8.05,11.15 Z M8.5699662,3.45 L7.53003517,3.45 C7.42165626,3.45 7.34782429,3.53382711 7.35013549,3.63723309 L7.35013549,3.63723309 L7.49822143,10.2627669 C7.50064917,10.3713867 7.58337472,10.45 7.68325441,10.45 L7.68325441,10.45 L8.41674696,10.45 C8.51165749,10.45 8.59946873,10.3661729 8.60177994,10.2627669 L8.60177994,10.2627669 L8.74986588,3.63723309 C8.75229361,3.52861328 8.67163325,3.45 8.5699662,3.45 L8.5699662,3.45 Z" id="warning-circle" fill="#FF693A"></path>
    </g>
</svg>