<svg width="14" height="14" viewBox="0 0 14 14" fill="none" xmlns="http://www.w3.org/2000/svg">
<g id="&#229;&#136;&#160;&#233;&#153;&#164;icon">
<path id="&#229;&#189;&#162;&#231;&#138;&#182;&#231;&#187;&#147;&#229;&#144;&#136;" fill-rule="evenodd" clip-rule="evenodd" d="M2 0C0.895431 0 0 0.89543 0 2V12C0 13.1046 0.89543 14 2 14H12C13.1046 14 14 13.1046 14 12V2C14 0.895431 13.1046 0 12 0H2ZM8.41399 4.17195C8.80451 3.78143 9.43768 3.78143 9.8282 4.17195C10.2187 4.56247 10.2187 5.19564 9.8282 5.58616L8.41421 7.00015L9.82805 8.41399C10.2186 8.80451 10.2186 9.43768 9.82805 9.8282C9.43752 10.2187 8.80436 10.2187 8.41384 9.8282L7 8.41436L5.58556 9.8288C5.19504 10.2193 4.56187 10.2193 4.17135 9.8288C3.78082 9.43828 3.78082 8.80512 4.17135 8.41459L5.58579 7.00015L4.1712 5.58556C3.78067 5.19504 3.78067 4.56187 4.1712 4.17135C4.56172 3.78082 5.19488 3.78082 5.58541 4.17135L7 5.58594L8.41399 4.17195Z" fill="#8495AA"/>
</g>
</svg>
