<svg width="72" height="72" viewBox="0 0 72 72" fill="none" xmlns="http://www.w3.org/2000/svg">
<g id="Group 643">
<g id="&#228;&#187;&#152;&#230;&#172;&#190;">
<circle id="&#230;&#164;&#173;&#229;&#156;&#134;&#229;&#189;&#162;" cx="36" cy="36" r="36" fill="#F3F5F6"/>
</g>
<g id="&#229;&#143;&#145;&#232;&#181;&#183;&#229;&#144;&#136;&#229;&#144;&#140;">
<rect id="&#230;&#143;&#143;&#232;&#190;&#185;" x="19" y="17" width="34" height="38" rx="3.5" stroke="#C3C3C3" stroke-width="2"/>
</g>
<g id="Group">
<path id="Vector" d="M29.4336 40.9715V40.2525V40.5373C29.4477 40.7799 29.648 40.9715 29.8941 40.9715H29.4336ZM29.4336 39.7832H30.1525H29.8678C29.6252 39.7973 29.4336 39.9977 29.4336 40.2438V39.7832ZM42.4889 39.7885V40.5074V40.2227C42.4748 39.9801 42.2744 39.7885 42.0283 39.7885H42.4889Z" fill="#C3C3C3"/>
<path id="Vector_2" d="M42.4896 40.9639H41.7707H42.0555C42.298 40.9498 42.4896 40.7494 42.4896 40.5033V40.9639ZM43.9258 43.7377C43.9258 44.135 43.6041 44.4584 43.2051 44.4584H28.7207C28.3234 44.4584 28 44.1367 28 43.7377C28 43.3404 28.3217 43.017 28.7207 43.017H43.2051C43.6041 43.0187 43.9258 43.3404 43.9258 43.7377ZM36.0877 28C33.6408 28 31.658 29.9828 31.658 32.4297C31.658 34.2156 32.7145 35.7555 34.2385 36.4551L34.8572 35.1543C33.8201 34.685 33.0977 33.6408 33.0977 32.4279C33.0977 30.7773 34.4371 29.4379 36.0877 29.4379C37.7383 29.4379 39.0777 30.7791 39.0777 32.4297C39.0777 33.6303 38.3693 34.6656 37.3498 35.1402L37.9686 36.3672L37.9422 36.4533C39.4627 35.752 40.5174 34.2139 40.5174 32.4297C40.5174 29.9828 38.5346 28 36.0877 28Z" fill="#C3C3C3"/>
<path id="Vector_3" d="M28.002 39.4684V41.2878C28.0424 41.896 28.5363 42.3794 29.1498 42.4022H42.8361C43.4074 42.3547 43.8645 41.9083 43.9277 41.3422V39.3682C43.8486 38.8215 43.3986 38.3944 42.8414 38.3505H39.5209L38.2992 35.5169C38.141 35.1512 37.7174 34.9842 37.3535 35.1407C36.9879 35.2989 36.8209 35.7225 36.9773 36.0864L38.3854 39.3524C38.4891 39.5932 38.7088 39.7479 38.9514 39.7813C38.9883 39.7866 39.0252 39.7901 39.0621 39.7901H42.4863V40.9626H29.4416V39.7901H33.1295C33.2051 39.7901 33.2771 39.7778 33.3457 39.7567C33.5461 39.6987 33.7201 39.5563 33.808 39.3489L35.2125 36.0934C35.3707 35.7278 35.202 35.3042 34.8363 35.1477C34.4707 34.9895 34.0471 35.1583 33.8906 35.5239L32.6725 38.3505H29.1146C28.517 38.3909 28.0406 38.869 28.002 39.4684Z" fill="#C3C3C3"/>
</g>
</g>
</svg>
