<svg width="72" height="72" viewBox="0 0 72 72" fill="none" xmlns="http://www.w3.org/2000/svg">
<g id="Group 621">
<g id="&#228;&#187;&#152;&#230;&#172;&#190;">
<circle id="&#230;&#164;&#173;&#229;&#156;&#134;&#229;&#189;&#162;" cx="36" cy="36" r="36" fill="#E8F4FF"/>
</g>
<g id="&#229;&#143;&#145;&#232;&#181;&#183;&#229;&#144;&#136;&#229;&#144;&#140;">
<rect id="&#229;&#161;&#171;&#229;&#133;&#133;" x="19.125" y="17.1094" width="33.75" height="37.7778" rx="4.5" fill="#9AC1EF"/>
<g id="Mask group">
<mask id="mask0_2886_52943" style="mask-type:alpha" maskUnits="userSpaceOnUse" x="19" y="17" width="34" height="38">
<rect id="&#229;&#134;&#133;&#233;&#131;&#168;" x="19.125" y="17.1133" width="33.75" height="37.7778" rx="4.5" fill="#FCD309"/>
</mask>
<g mask="url(#mask0_2886_52943)">
<ellipse id="&#230;&#164;&#173;&#229;&#156;&#134;&#229;&#189;&#162;_2" opacity="0.2" cx="27.5625" cy="23.2235" rx="20.8125" ry="20.5556" fill="white"/>
<ellipse id="&#230;&#164;&#173;&#229;&#156;&#134;&#229;&#189;&#162;_3" opacity="0.3" cx="27.5627" cy="23.224" rx="10.8225" ry="10.6889" fill="white"/>
<path id="Vector 49" opacity="0.7" d="M27 26.0039H45" stroke="white" stroke-width="2" stroke-linecap="round"/>
<path id="Vector 50" opacity="0.7" d="M27 32H39" stroke="white" stroke-width="2" stroke-linecap="round"/>
<path id="Vector 54" opacity="0.7" d="M27 38H33" stroke="white" stroke-width="2" stroke-linecap="round"/>
<path id="Union" opacity="0.7" fill-rule="evenodd" clip-rule="evenodd" d="M48.4 47C48.4 48.8778 46.8778 50.4 45 50.4C43.1222 50.4 41.6 48.8778 41.6 47C41.6 45.1222 43.1222 43.6 45 43.6C46.8778 43.6 48.4 45.1222 48.4 47ZM50 47C50 49.7614 47.7614 52 45 52C42.2386 52 40 49.7614 40 47C40 44.2386 42.2386 42 45 42C47.7614 42 50 44.2386 50 47ZM44.9667 45.3333C44.9667 44.8915 44.6085 44.5333 44.1667 44.5333C43.7248 44.5333 43.3667 44.8915 43.3667 45.3333V47C43.3667 47.9021 44.0979 48.6333 45 48.6333H46.6667C47.1085 48.6333 47.4667 48.2752 47.4667 47.8333C47.4667 47.3915 47.1085 47.0333 46.6667 47.0333H45C44.9816 47.0333 44.9667 47.0184 44.9667 47V45.3333Z" fill="white"/>
</g>
</g>
<rect id="&#230;&#143;&#143;&#232;&#190;&#185;" x="19" y="17" width="34" height="38" rx="3.5" stroke="#288BE6" stroke-width="2"/>
</g>
</g>
</svg>
