<svg width="72" height="72" viewBox="0 0 72 72" fill="none" xmlns="http://www.w3.org/2000/svg">
<g id="Group 667">
<g id="&#228;&#187;&#152;&#230;&#172;&#190;">
<circle id="&#230;&#164;&#173;&#229;&#156;&#134;&#229;&#189;&#162;" cx="36" cy="36" r="36" fill="#F1E1FF"/>
</g>
<g id="&#229;&#143;&#145;&#232;&#181;&#183;&#229;&#144;&#136;&#229;&#144;&#140;">
<rect id="&#229;&#161;&#171;&#229;&#133;&#133;" x="19.125" y="17.1094" width="33.75" height="37.7778" rx="4.5" fill="#C79FE8"/>
<g id="Mask group">
<mask id="mask0_2886_53939" style="mask-type:alpha" maskUnits="userSpaceOnUse" x="19" y="17" width="34" height="38">
<rect id="&#229;&#134;&#133;&#233;&#131;&#168;" x="19.125" y="17.1133" width="33.75" height="37.7778" rx="4.5" fill="#FCD309"/>
</mask>
<g mask="url(#mask0_2886_53939)">
<ellipse id="&#230;&#164;&#173;&#229;&#156;&#134;&#229;&#189;&#162;_2" opacity="0.2" cx="27.5625" cy="23.2235" rx="20.8125" ry="20.5556" fill="white"/>
<ellipse id="&#230;&#164;&#173;&#229;&#156;&#134;&#229;&#189;&#162;_3" opacity="0.3" cx="27.5627" cy="23.224" rx="10.8225" ry="10.6889" fill="white"/>
</g>
</g>
<rect id="&#230;&#143;&#143;&#232;&#190;&#185;" x="19" y="17" width="34" height="38" rx="3.5" stroke="#9372AF" stroke-width="2"/>
</g>
<path id="Union" fill-rule="evenodd" clip-rule="evenodd" d="M44.7651 43.9999L43.9375 45.4408L43.1362 43.9851C42.7934 43.3623 43.2439 42.6 43.9548 42.6C44.6732 42.6 45.1229 43.3769 44.7651 43.9999ZM46.1525 44.7968L44.8404 47.0812L44.8293 47.1006L44.6612 47.3932H47.3333C48.2538 47.3932 49 48.1394 49 49.0599V49.3331C49 50.2536 48.2538 50.9998 47.3333 50.9998H40.6667C39.7462 50.9998 39 50.2536 39 49.3331V49.0599C39 48.1394 39.7462 47.3932 40.6667 47.3932H43.1858L43.0157 47.0841L43.0049 47.0645L41.7345 44.7566C40.8047 43.0675 42.0267 41 43.9548 41C45.9033 41 47.123 43.1072 46.1525 44.7968ZM40.6667 48.9932H47.3333C47.3702 48.9932 47.4 49.0231 47.4 49.0599V49.3331C47.4 49.3699 47.3702 49.3998 47.3333 49.3998H40.6667C40.6298 49.3998 40.6 49.3699 40.6 49.3331V49.0599C40.6 49.0231 40.6298 48.9932 40.6667 48.9932Z" fill="#EEE2F8"/>
</g>
</svg>
