<svg width="72" height="72" viewBox="0 0 72 72" fill="none" xmlns="http://www.w3.org/2000/svg">
<g id="Group 684">
<g id="&#228;&#187;&#152;&#230;&#172;&#190;">
<circle id="&#230;&#164;&#173;&#229;&#156;&#134;&#229;&#189;&#162;" cx="36" cy="36" r="36" fill="#F3F7FD"/>
</g>
<g id="&#229;&#143;&#145;&#232;&#181;&#183;&#229;&#144;&#136;&#229;&#144;&#140;">
<rect id="&#229;&#161;&#171;&#229;&#133;&#133;" x="19.125" y="17.1094" width="33.75" height="37.7778" rx="4.5" fill="#D5DFE6"/>
<g id="Mask group">
<mask id="mask0_2914_49517" style="mask-type:alpha" maskUnits="userSpaceOnUse" x="19" y="17" width="34" height="38">
<rect id="&#229;&#134;&#133;&#233;&#131;&#168;" x="19.125" y="17.1133" width="33.75" height="37.7778" rx="4.5" fill="#FCD309"/>
</mask>
<g mask="url(#mask0_2914_49517)">
<ellipse id="&#230;&#164;&#173;&#229;&#156;&#134;&#229;&#189;&#162;_2" opacity="0.2" cx="27.5625" cy="23.2235" rx="20.8125" ry="20.5556" fill="white"/>
<ellipse id="&#230;&#164;&#173;&#229;&#156;&#134;&#229;&#189;&#162;_3" opacity="0.3" cx="27.5627" cy="23.224" rx="10.8225" ry="10.6889" fill="white"/>
<path id="Vector 49" opacity="0.7" d="M27 26.0039H45" stroke="white" stroke-width="2" stroke-linecap="round"/>
<path id="Vector 50" opacity="0.7" d="M27 32H39" stroke="white" stroke-width="2" stroke-linecap="round"/>
<path id="Vector 54" opacity="0.7" d="M27 38H33" stroke="white" stroke-width="2" stroke-linecap="round"/>
</g>
</g>
<rect id="&#230;&#143;&#143;&#232;&#190;&#185;" x="19" y="17" width="34" height="38" rx="3.5" stroke="#C5CBD0" stroke-width="2"/>
<path id="Union" d="M41.6054 48.2623C41.293 48.5747 41.293 49.0812 41.6054 49.3936C41.9178 49.7061 42.4244 49.7061 42.7368 49.3936L44.9995 47.1309L47.2623 49.3936C47.5747 49.7061 48.0812 49.7061 48.3936 49.3936C48.7061 49.0812 48.7061 48.5747 48.3936 48.2623L46.1309 45.9995L48.3936 43.7368C48.7061 43.4244 48.7061 42.9178 48.3936 42.6054C48.0812 42.293 47.5747 42.293 47.2623 42.6054L44.9995 44.8682L42.7368 42.6054C42.4244 42.293 41.9178 42.293 41.6054 42.6054C41.293 42.9178 41.293 43.4244 41.6054 43.7368L43.8681 45.9995L41.6054 48.2623Z" fill="#F5F7F9"/>
</g>
</g>
</svg>
