<svg width="72" height="72" viewBox="0 0 72 72" fill="none" xmlns="http://www.w3.org/2000/svg">
<g id="Group 739">
<g id="&#228;&#187;&#152;&#230;&#172;&#190;">
<circle id="&#230;&#164;&#173;&#229;&#156;&#134;&#229;&#189;&#162;" cx="36" cy="36" r="36" fill="#F3F5F6"/>
</g>
<g id="&#229;&#143;&#145;&#232;&#181;&#183;&#229;&#144;&#136;&#229;&#144;&#140;">
<rect id="&#230;&#143;&#143;&#232;&#190;&#185;" x="19" y="17" width="34" height="38" rx="3.5" stroke="#C3C3C3" stroke-width="2"/>
</g>
<path id="Union" fill-rule="evenodd" clip-rule="evenodd" d="M44.7642 42.9999L43.9365 44.4408L43.1352 42.9851C42.7924 42.3623 43.243 41.6 43.9539 41.6C44.6723 41.6 45.122 42.3769 44.7642 42.9999ZM46.1516 43.7968L44.8395 46.0812L44.8283 46.1006L44.621 46.4616L44.5454 46.5932H47.3326C48.6949 46.5932 49.7992 47.6976 49.7992 49.0599V49.3331C49.7992 50.6954 48.6949 51.7998 47.3326 51.7998H40.6659C39.3036 51.7998 38.1992 50.6954 38.1992 49.3331V49.0599C38.1992 47.6976 39.3036 46.5932 40.6659 46.5932H43.2949L43.2155 46.4488L43.0147 46.0841L43.0039 46.0645L41.7335 43.7566C40.8038 42.0675 42.0258 40 43.9539 40C45.9024 40 47.1221 42.1072 46.1516 43.7968ZM39.7992 49.0599C39.7992 48.5812 40.1872 48.1932 40.6659 48.1932H47.3326C47.8112 48.1932 48.1992 48.5812 48.1992 49.0599V49.3331C48.1992 49.8118 47.8112 50.1998 47.3326 50.1998H40.6659C40.1872 50.1998 39.7992 49.8118 39.7992 49.3331V49.0599Z" fill="#C3C3C3"/>
<path id="Vector 61" d="M26 17V27.8233C26 28.2643 26.5296 28.4894 26.8471 28.1832L29.3059 25.8122C29.6932 25.4387 30.3068 25.4387 30.6941 25.8122L33.1529 28.1832C33.4704 28.4894 34 28.2643 34 27.8233V17" stroke="#C3C3C3" stroke-width="1.6"/>
</g>
</svg>
